<svg width="24" height="29" viewBox="0 0 24 29" fill="none" xmlns="http://www.w3.org/2000/svg">
<path fill-rule="evenodd" clip-rule="evenodd" d="M17.2669 0.599976C17.5182 2.3066 16.8235 3.9785 15.9072 5.1614C14.9268 6.4303 13.2369 7.41159 11.5996 7.36039C11.3007 5.72649 12.066 4.04299 12.9972 2.91129C14.0186 1.66229 15.7692 0.704056 17.2669 0.599976ZM22.1854 24.6216C23.0295 23.328 23.3448 22.6754 24 21.2149C19.2343 19.4026 18.4707 12.6273 23.1871 10.0269C21.7485 8.22279 19.727 7.177 17.8187 7.177C16.4437 7.177 15.5016 7.53579 14.6452 7.86199C13.9315 8.13389 13.2772 8.38299 12.4815 8.38299C11.6216 8.38299 10.8601 8.11 10.0628 7.8241C9.18663 7.51 8.26723 7.18029 7.12623 7.18029C4.98483 7.18029 2.70543 8.4888 1.26023 10.7257C-0.771173 13.8763 -0.424672 19.7991 2.86963 24.8446C4.04713 26.6504 5.62033 28.6792 7.67803 28.6973C8.53183 28.7058 9.10003 28.451 9.71483 28.1752C10.4186 27.8596 11.1834 27.5165 12.5078 27.5095C13.8399 27.5015 14.5927 27.8487 15.2871 28.169C15.8862 28.4453 16.4417 28.7016 17.2883 28.6924C19.3476 28.6759 21.0079 26.4273 22.1854 24.6216Z" fill="white"/>
</svg>
